<svg width="64" height="64" viewBox="0 0 64 64" fill="none" xmlns="http://www.w3.org/2000/svg">
<path d="M31.9998 16C32.707 16 33.3853 15.7191 33.8854 15.219C34.3855 14.7189 34.6665 14.0406 34.6665 13.3333V8.00001C34.6665 7.29277 34.3855 6.61449 33.8854 6.11439C33.3853 5.61429 32.707 5.33334 31.9998 5.33334C31.2926 5.33334 30.6143 5.61429 30.1142 6.11439C29.6141 6.61449 29.3331 7.29277 29.3331 8.00001V13.3333C29.3331 14.0406 29.6141 14.7189 30.1142 15.219C30.6143 15.7191 31.2926 16 31.9998 16Z" fill="#231F20"/>
<path d="M55.9996 29.3333H50.6663C49.9591 29.3333 49.2808 29.6143 48.7807 30.1144C48.2806 30.6145 47.9996 31.2928 47.9996 32C47.9996 32.7073 48.2806 33.3855 48.7807 33.8856C49.2808 34.3857 49.9591 34.6667 50.6663 34.6667H55.9996C56.7069 34.6667 57.3852 34.3857 57.8853 33.8856C58.3854 33.3855 58.6663 32.7073 58.6663 32C58.6663 31.2928 58.3854 30.6145 57.8853 30.1144C57.3852 29.6143 56.7069 29.3333 55.9996 29.3333Z" fill="#231F20"/>
<path d="M16.0002 32C16.0002 31.2928 15.7192 30.6145 15.2191 30.1144C14.719 29.6143 14.0407 29.3333 13.3335 29.3333H8.00016C7.29292 29.3333 6.61464 29.6143 6.11454 30.1144C5.61445 30.6145 5.3335 31.2928 5.3335 32C5.3335 32.7073 5.61445 33.3855 6.11454 33.8856C6.61464 34.3857 7.29292 34.6667 8.00016 34.6667H13.3335C14.0407 34.6667 14.719 34.3857 15.2191 33.8856C15.7192 33.3855 16.0002 32.7073 16.0002 32Z" fill="#231F20"/>
<path d="M16.5876 13.3333C16.0677 12.8418 15.3739 12.5769 14.6588 12.5969C13.9437 12.6169 13.2658 12.9202 12.7742 13.44C12.2827 13.9598 12.0178 14.6536 12.0378 15.3688C12.0578 16.0839 12.3611 16.7618 12.8809 17.2533L16.7209 20.96C16.9786 21.2088 17.2838 21.4032 17.6182 21.5315C17.9527 21.6598 18.3096 21.7194 18.6676 21.7067C19.0268 21.7053 19.382 21.6314 19.7119 21.4893C20.0419 21.3473 20.3397 21.14 20.5876 20.88C21.0842 20.3804 21.363 19.7045 21.363 19C21.363 18.2955 21.0842 17.6196 20.5876 17.12L16.5876 13.3333Z" fill="#231F20"/>
<path d="M45.3334 21.7067C46.02 21.7039 46.6791 21.4365 47.1734 20.96L51.0134 17.2533C51.4819 16.7639 51.7464 16.1145 51.7534 15.437C51.7604 14.7595 51.5092 14.1048 51.051 13.6058C50.5927 13.1068 49.9617 12.8009 49.2861 12.7503C48.6105 12.6997 47.9409 12.9082 47.4134 13.3333L43.5734 17.12C43.0768 17.6196 42.798 18.2955 42.798 19C42.798 19.7045 43.0768 20.3804 43.5734 20.88C44.0351 21.3672 44.6636 21.6624 45.3334 21.7067Z" fill="#231F20"/>
<path d="M31.9998 48C31.2926 48 30.6143 48.2809 30.1142 48.781C29.6141 49.2811 29.3331 49.9594 29.3331 50.6667V56C29.3331 56.7072 29.6141 57.3855 30.1142 57.8856C30.6143 58.3857 31.2926 58.6667 31.9998 58.6667C32.707 58.6667 33.3853 58.3857 33.8854 57.8856C34.3855 57.3855 34.6665 56.7072 34.6665 56V50.6667C34.6665 49.9594 34.3855 49.2811 33.8854 48.781C33.3853 48.2809 32.707 48 31.9998 48Z" fill="#231F20"/>
<path d="M47.2795 43.04C46.7702 42.5485 46.0866 42.2794 45.379 42.2919C44.6714 42.3044 43.9977 42.5975 43.5061 43.1067C43.0146 43.6159 42.7455 44.2995 42.758 45.0072C42.7705 45.7148 43.0636 46.3885 43.5728 46.88L47.4128 50.6667C47.9071 51.1432 48.5662 51.4106 49.2528 51.4133C49.6101 51.4154 49.9642 51.3457 50.294 51.2083C50.6238 51.0708 50.9227 50.8685 51.1728 50.6133C51.4227 50.3654 51.6211 50.0705 51.7565 49.7455C51.8919 49.4206 51.9616 49.072 51.9616 48.72C51.9616 48.368 51.8919 48.0194 51.7565 47.6945C51.6211 47.3695 51.4227 47.0746 51.1728 46.8267L47.2795 43.04Z" fill="#231F20"/>
<path d="M16.7201 43.04L12.8801 46.7467C12.6302 46.9946 12.4318 47.2895 12.2964 47.6145C12.161 47.9394 12.0913 48.288 12.0913 48.64C12.0913 48.992 12.161 49.3406 12.2964 49.6655C12.4318 49.9905 12.6302 50.2854 12.8801 50.5333C13.1302 50.7885 13.4291 50.9908 13.7589 51.1282C14.0887 51.2657 14.4428 51.3354 14.8001 51.3333C15.4575 51.3389 16.0937 51.1015 16.5868 50.6667L20.4268 46.96C20.936 46.4685 21.2291 45.7948 21.2416 45.0871C21.2541 44.3795 20.985 43.6959 20.4934 43.1867C20.0019 42.6774 19.3282 42.3843 18.6206 42.3718C17.9129 42.3593 17.2293 42.6285 16.7201 43.12V43.04Z" fill="#231F20"/>
<path d="M32.0002 21.3333C29.8905 21.3333 27.8282 21.9589 26.0741 23.131C24.32 24.3031 22.9528 25.969 22.1455 27.9181C21.3381 29.8671 21.1269 32.0118 21.5385 34.081C21.95 36.1501 22.9659 38.0507 24.4577 39.5425C25.9495 41.0342 27.8501 42.0501 29.9192 42.4617C31.9883 42.8733 34.133 42.6621 36.0821 41.8547C38.0312 41.0474 39.6971 39.6802 40.8692 37.9261C42.0412 36.172 42.6668 34.1097 42.6668 32C42.6668 29.171 41.543 26.4579 39.5426 24.4575C37.5423 22.4571 34.8291 21.3333 32.0002 21.3333ZM32.0002 37.3333C30.9453 37.3333 29.9142 37.0205 29.0371 36.4345C28.1601 35.8485 27.4765 35.0155 27.0728 34.041C26.6691 33.0664 26.5635 31.9941 26.7693 30.9595C26.9751 29.925 27.4831 28.9747 28.2289 28.2288C28.9748 27.4829 29.9251 26.9749 30.9597 26.7692C31.9943 26.5634 33.0666 26.669 34.0411 27.0727C35.0157 27.4763 35.8486 28.1599 36.4347 29.037C37.0207 29.914 37.3335 30.9452 37.3335 32C37.3335 33.4145 36.7716 34.7711 35.7714 35.7712C34.7712 36.7714 33.4147 37.3333 32.0002 37.3333Z" fill="#231F20"/>
</svg>
