<svg id="Layer_1" data-name="Layer 1" xmlns="http://www.w3.org/2000/svg" viewBox="0 0 600 400"><defs><style>.cls-1{fill:#fe6e1e;}</style></defs><path d="M52.12,330.54A60.82,60.82,0,0,1,44.77,334a24.49,24.49,0,0,1-9.24,1.77,12.33,12.33,0,0,1-4.19-.5,2,2,0,0,1-1.26-2,5.58,5.58,0,0,1,.38-1.84c.25-.71.59-1.07,1-1.07a1,1,0,0,1,.63.38,3,3,0,0,0,2.29,1.14c1,.08,2.1.12,3.29.12a8.15,8.15,0,0,0,4.81-1.83,9.87,9.87,0,0,0,3.17-4.63,41.34,41.34,0,0,0,1-5.57q.51-3.79.83-9.12t.5-11.85q.2-6.53.19-13.74,0-16.47-.88-25.66T45,249a7.48,7.48,0,0,0-3.49-1.52,24,24,0,0,0-4.24-.38c-.68,0-1.35,0-2,.06s-1.22.07-1.64.07a1.48,1.48,0,0,1-1.21-.57A1.92,1.92,0,0,1,32,245.4q0-2.28,1.65-2.28c.59,0,1.64.06,3.16.19s3.27.26,5.26.38,4.07.24,6.27.32,4.18.13,6,.13a18.1,18.1,0,0,0,6.14-1c1.9-.67,3.87-1.43,5.89-2.28A60.17,60.17,0,0,1,73,238.56a31.49,31.49,0,0,1,8.42-1q12.42,0,21.35,3.54a40.38,40.38,0,0,1,14.63,9.57,38.21,38.21,0,0,1,8.43,13.81,48.73,48.73,0,0,1,2.72,16.15,60.59,60.59,0,0,1-13.43,37.57A50.54,50.54,0,0,1,99.44,331,42.93,42.93,0,0,1,79,335.86a51.94,51.94,0,0,1-6-.44q-3.61-.45-7.42-1.2t-7.41-1.72A45,45,0,0,1,52.12,330.54Zm29.78.13a23.54,23.54,0,0,0,13-3.61,31.05,31.05,0,0,0,9.31-9.5,45.84,45.84,0,0,0,5.64-13.5,64.34,64.34,0,0,0,1.9-15.58,68.71,68.71,0,0,0-2.09-16.79,48.11,48.11,0,0,0-6.4-14.82A34.87,34.87,0,0,0,92.6,246.35a27.54,27.54,0,0,0-14.89-4,23.08,23.08,0,0,0-3.42.32,14.56,14.56,0,0,0-3.92,1.2A13.53,13.53,0,0,0,67,246.16a6.8,6.8,0,0,0-2,3.55,41.75,41.75,0,0,0-.7,4.56c-.21,2-.42,4.2-.63,6.78s-.36,5.36-.44,8.36-.13,6.1-.13,9.31q0,10.9.06,18.25t.19,11.91c.09,3,.19,5.3.32,6.78s.23,2.47.32,3a10.65,10.65,0,0,0,1.83,4.25,17.31,17.31,0,0,0,3.8,3.86A19.83,19.83,0,0,0,75,329.59,20.92,20.92,0,0,0,81.9,330.67Z"/><path d="M155,311.16c0,1.77,0,3.48.13,5.13a12.38,12.38,0,0,0,.88,4.24,6.56,6.56,0,0,0,2.28,2.85,7.38,7.38,0,0,0,4.31,1.08,17.51,17.51,0,0,0,3.17-.32,24.27,24.27,0,0,0,3.36-.82c1.05-.34,2-.68,2.78-1a5.73,5.73,0,0,0,1.46-.76q.38-.39.51,0a2.36,2.36,0,0,1,.06.95,3.76,3.76,0,0,1-.32,1.14,1.89,1.89,0,0,1-.63.82q-1.26.63-4.43,2.28t-7.48,3.42a76.18,76.18,0,0,1-7.92,3,22.46,22.46,0,0,1-6.4,1.2,5.93,5.93,0,0,1-4.56-1.77,6.25,6.25,0,0,1-1.64-4.44,13.63,13.63,0,0,1,.06-1.52c0-.42.11-1,.19-1.64.08-.85.23-2.39.44-4.63s.42-4.75.63-7.54.41-5.59.58-8.42.25-5.26.25-7.29v-4.43a40.15,40.15,0,0,0-.38-5.83,10.18,10.18,0,0,0-1.27-3.93,5.22,5.22,0,0,0-1.58-1.45,4.48,4.48,0,0,0-2.34-.57,4,4,0,0,0-1.53.31,3.32,3.32,0,0,1-1.14.32c-.17,0-.44-.25-.82-.76s-.36-.89.06-1.14a33.25,33.25,0,0,1,3.68-2l6.08-3c2.36-1.18,4.65-2.21,6.84-3.1a14.86,14.86,0,0,1,4.69-1.33,2,2,0,0,1,1.9.82,3.42,3.42,0,0,1,.51,1.84v.5a34.56,34.56,0,0,1-.38,4.06c-.26,1.86-.53,4.14-.83,6.84s-.57,5.83-.82,9.38-.38,7.39-.38,11.53Zm-5.07-65.88a6,6,0,0,1,2.09,1.39,38.29,38.29,0,0,1,3,2.91c1,1.1,1.9,2.16,2.66,3.17a5,5,0,0,1,1.14,2c0,.42-.51,1.05-1.52,1.9s-2.18,1.71-3.48,2.59-2.58,1.67-3.8,2.35a6.66,6.66,0,0,1-2.6,1,5.06,5.06,0,0,1-1.84-1.2c-1-.8-2-1.71-3-2.73s-1.92-2-2.72-3a4.71,4.71,0,0,1-1.21-2c0-.43.55-1.08,1.65-2s2.3-1.82,3.61-2.79a43.88,43.88,0,0,1,3.8-2.53A19.28,19.28,0,0,1,149.93,245.28Z"/><path d="M220.25,323.07q-1.4,1.14-3.8,3a55.54,55.54,0,0,1-5.58,3.8,38.16,38.16,0,0,1-7,3.23,23.87,23.87,0,0,1-8,1.33,27.21,27.21,0,0,1-11.27-2.22,24.2,24.2,0,0,1-8.3-5.95,24.9,24.9,0,0,1-5.07-8.81,33.43,33.43,0,0,1-1.71-10.77,32.67,32.67,0,0,1,2-11.91,36.69,36.69,0,0,1,5-9.06,34.69,34.69,0,0,1,6.4-6.46,49.93,49.93,0,0,1,6.21-4.11,30.51,30.51,0,0,1,3.23-1.65,42.32,42.32,0,0,1,4.31-1.65,48.2,48.2,0,0,1,5.06-1.33,27.53,27.53,0,0,1,5.64-.57A40.57,40.57,0,0,1,218,271.37a26.33,26.33,0,0,1,9.06,4.38,22,22,0,0,1,6.33,7.66,24.4,24.4,0,0,1,2.41,11.28,25.64,25.64,0,0,1-2,10,41.48,41.48,0,0,1-4.63,8.36,52.52,52.52,0,0,1-5.25,6.27Zm-14.32,2q7.22,0,11.09-5.45t3.86-16.72a34.25,34.25,0,0,0-1.58-10.58,28,28,0,0,0-4.44-8.55,21.48,21.48,0,0,0-6.65-5.76,16.74,16.74,0,0,0-8.23-2.1,11.91,11.91,0,0,0-6,1.65,15.85,15.85,0,0,0-5,4.75,25.73,25.73,0,0,0-3.42,7.54,36.64,36.64,0,0,0-1.26,10,29.05,29.05,0,0,0,1.83,10.64,24.33,24.33,0,0,0,4.88,7.92,21.2,21.2,0,0,0,6.9,4.94A19.7,19.7,0,0,0,205.93,325.09Z"/><path d="M263.19,299.75c-.08.76-.17,1.44-.25,2s-.15,1.27-.19,2-.08,1.71-.13,2.85-.06,2.64-.06,4.5a71.72,71.72,0,0,0,.32,7.47,20,20,0,0,0,.95,4.63,4.64,4.64,0,0,0,1.58,2.34,4.18,4.18,0,0,0,2.35.63,7.82,7.82,0,0,0,1.9-.25c.16,0,.31.23.44.7s.11.78-.06.95a21.15,21.15,0,0,1-3,1.83,49.34,49.34,0,0,1-5,2.35,59.3,59.3,0,0,1-5.76,2,18.22,18.22,0,0,1-5,.89,7,7,0,0,1-2.79-.44c-.68-.3-1-.66-1-1.08a1.4,1.4,0,0,1,.12-.76,2.93,2.93,0,0,0,.38-.63,6.42,6.42,0,0,0,.38-1.58c.08-.64.21-1.38.38-2.22q.25-1.77.51-4.5c.17-1.81.33-3.8.5-5.95s.32-4.4.45-6.72.19-4.58.19-6.78c0-.93,0-2.09-.07-3.48s-.1-3.19-.18-5.39a28.9,28.9,0,0,0-.83-6.27,14,14,0,0,0-1.77-4.18,7.4,7.4,0,0,0-2.41-2.34,5.16,5.16,0,0,0-2.6-.76h-1.26a6.75,6.75,0,0,0-1.27.12q-.51,0-.51-1.14a.65.65,0,0,1,.19-.44,9.37,9.37,0,0,1,1.21-.82q1.64-1.14,4.43-2.79t5.7-3c1.95-.93,3.78-1.73,5.51-2.41a12.18,12.18,0,0,1,4-1q3.68,0,3.68,4.18c0,.42,0,1.18-.13,2.28s-.15,2.22-.19,3.36-.11,2.22-.19,3.23-.12,1.69-.12,2c1.77-1.69,3.67-3.43,5.7-5.2a51.45,51.45,0,0,1,6.58-4.88,38.76,38.76,0,0,1,7.48-3.61,24,24,0,0,1,8.11-1.39q7.6,0,12.48,4.37t4.87,13.87q0,2.53-.31,6t-.7,7.09q-.37,3.68-.69,7.22c-.22,2.37-.32,4.48-.32,6.34q0,10.14,6.59,10.13a10.54,10.54,0,0,0,2.85-.44,30.94,30.94,0,0,0,3-1c1-.38,1.83-.76,2.59-1.14a6.55,6.55,0,0,0,1.53-.95c.08-.09.18,0,.31.19a3,3,0,0,1,.32.82,2.33,2.33,0,0,1,.06.89.88.88,0,0,1-.19.5q-1,.65-4.37,2.41c-2.24,1.18-4.73,2.39-7.48,3.61s-5.46,2.33-8.17,3.29a20.14,20.14,0,0,1-6.46,1.46c-1.94,0-3.27-.46-4-1.39a4.68,4.68,0,0,1-1.07-2.91,12.85,12.85,0,0,1,.31-2.54c.21-1,.49-2.66.82-4.94q.51-3.68,1-8.61t.44-10.65q0-11.15-4.12-16.91T280.43,281a15.41,15.41,0,0,0-7,1.52,16.07,16.07,0,0,0-5.2,4.12,20.7,20.7,0,0,0-3.42,6A28.48,28.48,0,0,0,263.19,299.75Z"/><path d="M321.48,370.83c.76-.84,1.9-2.24,3.42-4.18s3.19-4.14,5-6.59,3.68-5.07,5.58-7.85l5.38-7.92c1.69-2.5,3.15-4.77,4.37-6.84a28.42,28.42,0,0,0,2.35-4.63l-4.31-11.27q-2.28-6-4.75-11.79t-4.94-11.15a100.85,100.85,0,0,0-4.88-9.31,40.55,40.55,0,0,0-4.63-6.4q-2.2-2.4-4-2.4a2.61,2.61,0,0,0-1.14.31l-1.14.57c-.25.17-.55,0-.88-.63s-.34-1,0-1.14,1.33-.89,3-1.9,3.49-2.09,5.51-3.23,4-2.17,5.9-3.11a11.31,11.31,0,0,1,4.11-1.39c.85,0,1.84.76,3,2.28a36.89,36.89,0,0,1,3.55,6.15q1.83,3.85,3.86,8.8t4.06,10.33q2,5.38,4,10.83t3.74,10.14c1.09-1.69,2.51-4.1,4.24-7.23s3.4-6.46,5-10A105.15,105.15,0,0,0,371,290.76a29,29,0,0,0,1.71-8.74q0-3.67-1.77-5.26a5.75,5.75,0,0,0-3.93-1.58c-1.1,0-2,0-2.6.06a13.68,13.68,0,0,0-2.09.32,1.72,1.72,0,0,1-.76-.32,1,1,0,0,1-.5-.95c0-.42.93-.89,2.78-1.39s4-1,6.46-1.4,4.86-.78,7.23-1.07a46.22,46.22,0,0,1,4.94-.45,6.77,6.77,0,0,1,4.31,1.14,3.39,3.39,0,0,1,1.39,2.66,40.34,40.34,0,0,1-3.23,7.92q-2.47,4.88-5.89,10.64t-7.29,11.91q-3.87,6.15-7.41,11.59t-6.4,9.76q-2.85,4.31-4.12,6.33-2.53,3.93-4.81,8.18t-4.18,8.48q-1.91,4.25-3.36,8.12a44.85,44.85,0,0,0-2.09,7c-.25,1.26,0,2.09.7,2.47a4.26,4.26,0,0,0,2.79.25,17.37,17.37,0,0,0,3.73-1.2,15,15,0,0,0,3.42-2c.43-.34.7-.4.83-.19a2,2,0,0,1,.19.95,3.87,3.87,0,0,1-.26,1.33,1.92,1.92,0,0,1-.63.95q-.14,0-2.91,1.14c-1.86.76-4.1,1.59-6.72,2.47s-5.38,1.71-8.3,2.47a30.89,30.89,0,0,1-7.66,1.14c-2.12,0-3.17-.67-3.17-2a1,1,0,0,1,.06-.39A.45.45,0,0,0,321.48,370.83Z"/><path d="M390.14,330a6.27,6.27,0,0,0-1.9,2.1,12.31,12.31,0,0,0-1.14,2.21,1.14,1.14,0,0,1-.69.45,3.32,3.32,0,0,1-.83.19,1,1,0,0,1-1.14-1.15,6.73,6.73,0,0,1,1-2l2.4-4,3.36-5.58q1.71-2.85,3.17-5.19a32.2,32.2,0,0,1,2.09-3.11,1.21,1.21,0,0,1,1.52-.19q.88.45.51,1.08a1.65,1.65,0,0,0-.39.64,4.61,4.61,0,0,0-.12,1.26c0,.76.65,1.71,2,2.85a25.88,25.88,0,0,0,5,3.3,39.8,39.8,0,0,0,6.71,2.72,24.3,24.3,0,0,0,7.22,1.14,9.12,9.12,0,0,0,6.66-2.41A8.45,8.45,0,0,0,428,318c0-3-.94-5.15-2.79-6.59a19.91,19.91,0,0,0-6.91-3.29,72.62,72.62,0,0,0-9-1.84,49.7,49.7,0,0,1-9-2.09,18.44,18.44,0,0,1-6.9-4.05c-1.86-1.78-2.79-4.35-2.79-7.73a14.31,14.31,0,0,1,2.73-8,28,28,0,0,1,7.22-7.22A41.4,41.4,0,0,1,410.92,272a36.77,36.77,0,0,1,12.16-2,30.91,30.91,0,0,1,4.44.38c1.69.25,3.36.57,5,.95s3.17.76,4.57,1.14,2.42.7,3.1.95c.17,0,.13.34-.13,1a17.78,17.78,0,0,1-1.9,3.48,54,54,0,0,1-3.36,4.62q-1.83,2.3-3.42,4.06c-1.06,1.18-1.79,1.77-2.21,1.77h-.77a1.22,1.22,0,0,1-.88-.25,9.14,9.14,0,0,0,.12-1.65,7.88,7.88,0,0,0-4-7q-4-2.52-11.6-2.53a8.59,8.59,0,0,0-6,2.15,6.82,6.82,0,0,0-2.34,5.2q0,4.93,2.79,7.35a18.15,18.15,0,0,0,7,3.61,61.28,61.28,0,0,0,9,1.83,52.54,52.54,0,0,1,9,2,17.7,17.7,0,0,1,7,4q2.77,2.65,2.78,8a11.51,11.51,0,0,1-1,4.69,19.59,19.59,0,0,1-2.66,4.31,28.18,28.18,0,0,1-3.68,3.73,34.9,34.9,0,0,1-4.05,3c-1.27.85-2.71,1.71-4.31,2.6a49,49,0,0,1-5.19,2.47,39.84,39.84,0,0,1-5.7,1.84,25.3,25.3,0,0,1-5.83.69,27.22,27.22,0,0,1-4.44-.57q-3-.57-6.14-1.33T392.68,331A7.67,7.67,0,0,1,390.14,330Z"/><path d="M486.56,293.8a58.38,58.38,0,0,0-1.78-7,18.66,18.66,0,0,0-2.53-5.2,10.14,10.14,0,0,0-3.67-3.16,11.85,11.85,0,0,0-5.33-1.08,12.9,12.9,0,0,0-5.13,1,17.29,17.29,0,0,0-4.05,2.41,13.43,13.43,0,0,0-2.66,2.79,6.28,6.28,0,0,0-1.08,2.15,1,1,0,0,1-1.14,1,5.06,5.06,0,0,1-3.29-1.27,3.81,3.81,0,0,1-1.52-3,3.51,3.51,0,0,1,.25-1.52c1.94-1.1,4.31-2.28,7.09-3.55s5.69-2.45,8.69-3.55a81.93,81.93,0,0,1,8.93-2.72,34,34,0,0,1,8-1.08q5.32,0,8.17,1.52a9.7,9.7,0,0,1,4.24,4.31,18,18,0,0,1,1.72,6.52q.3,3.75.57,8.05.38,6.47,1,12.48a66.25,66.25,0,0,0,1.9,10.64,24.72,24.72,0,0,0,3.23,7.48,5.78,5.78,0,0,0,4.88,2.85,10.34,10.34,0,0,0,3-.51,28,28,0,0,0,3.17-1.2c1-.47,1.92-.93,2.72-1.4s1.33-.78,1.58-1a1.31,1.31,0,0,1,1.4,1.14,2.46,2.46,0,0,1-.26,1.14,16.53,16.53,0,0,1-1.9,1.27c-1.09.68-2.45,1.48-4,2.41s-3.38,1.92-5.32,3-3.87,2.05-5.77,3a55.6,55.6,0,0,1-5.26,2.28,11.85,11.85,0,0,1-3.8.89,3.75,3.75,0,0,1-2.85-1.33,11.81,11.81,0,0,1-2.09-3.55,32.14,32.14,0,0,1-1.52-5.13q-.63-2.91-1.14-6.08-2.28,1.9-5.83,4.5a69.18,69.18,0,0,1-7.72,4.87,61.14,61.14,0,0,1-8.56,3.87,24.55,24.55,0,0,1-8.42,1.58,15.14,15.14,0,0,1-6-1.08,12.58,12.58,0,0,1-4.24-2.84,11.32,11.32,0,0,1-2.53-4.12,14.63,14.63,0,0,1-.83-4.88,9.29,9.29,0,0,1,2.47-6.65,30.86,30.86,0,0,1,7.67-5.39q2.4-1.26,6.71-3.35t8.81-4.25q4.5-2.14,8.36-4.11C483.5,295.59,485.37,294.56,486.56,293.8Zm3.67,19.64c-.25-1.44-.5-3-.76-4.69s-.5-3.3-.76-4.81-.49-2.83-.7-3.93-.36-1.82-.44-2.16q-2,.76-4.56,1.78t-5.07,2.22q-2.54,1.2-4.81,2.4c-1.52.81-2.79,1.54-3.8,2.22a18.79,18.79,0,0,0-4.44,3.8,7.1,7.1,0,0,0-1.52,4.56,10.23,10.23,0,0,0,2.16,6.46q2.14,2.79,6.71,2.79a15.6,15.6,0,0,0,5-.89,35.81,35.81,0,0,0,4.81-2,36.42,36.42,0,0,0,3.87-2.28,17.42,17.42,0,0,0,2.27-1.78,21.5,21.5,0,0,0,1.59-1.71A2.56,2.56,0,0,0,490.23,313.44Z"/><path d="M518.86,330a6.27,6.27,0,0,0-1.9,2.1,12.31,12.31,0,0,0-1.14,2.21,1.14,1.14,0,0,1-.69.45,3.41,3.41,0,0,1-.83.19,1,1,0,0,1-1.14-1.15,6.85,6.85,0,0,1,1-2l2.41-4,3.36-5.58c1.14-1.9,2.19-3.63,3.17-5.19a32.2,32.2,0,0,1,2.09-3.11,1.21,1.21,0,0,1,1.52-.19q.88.45.51,1.08a1.54,1.54,0,0,0-.39.64,4.61,4.61,0,0,0-.12,1.26c0,.76.65,1.71,2,2.85a25.88,25.88,0,0,0,5,3.3,39.8,39.8,0,0,0,6.71,2.72,24.3,24.3,0,0,0,7.22,1.14,9.12,9.12,0,0,0,6.66-2.41,8.45,8.45,0,0,0,2.47-6.33c0-3-.94-5.15-2.79-6.59a19.91,19.91,0,0,0-6.91-3.29,72.62,72.62,0,0,0-9-1.84,49.7,49.7,0,0,1-9-2.09,18.36,18.36,0,0,1-6.9-4.05c-1.86-1.78-2.79-4.35-2.79-7.73a14.37,14.37,0,0,1,2.72-8,28.18,28.18,0,0,1,7.23-7.22A41.22,41.22,0,0,1,539.64,272a36.77,36.77,0,0,1,12.16-2,30.91,30.91,0,0,1,4.44.38c1.69.25,3.36.57,5,.95s3.17.76,4.56,1.14,2.43.7,3.11.95c.16,0,.12.34-.13,1a17.78,17.78,0,0,1-1.9,3.48,54,54,0,0,1-3.36,4.62q-1.83,2.3-3.42,4.06c-1.06,1.18-1.79,1.77-2.22,1.77h-.76a1.22,1.22,0,0,1-.88-.25,9.14,9.14,0,0,0,.12-1.65,7.87,7.87,0,0,0-4-7q-4-2.52-11.59-2.53a8.57,8.57,0,0,0-6,2.15,6.82,6.82,0,0,0-2.34,5.2q0,4.93,2.79,7.35a18.15,18.15,0,0,0,7,3.61,61.28,61.28,0,0,0,9,1.83,52.54,52.54,0,0,1,9,2,17.66,17.66,0,0,1,7,4q2.79,2.65,2.79,8a11.51,11.51,0,0,1-1,4.69,19.59,19.59,0,0,1-2.66,4.31,28.18,28.18,0,0,1-3.68,3.73,34.9,34.9,0,0,1-4.05,3c-1.27.85-2.71,1.71-4.31,2.6a49,49,0,0,1-5.19,2.47,39.84,39.84,0,0,1-5.7,1.84,25.3,25.3,0,0,1-5.83.69,27.22,27.22,0,0,1-4.44-.57q-3-.57-6.14-1.33T521.4,331A7.67,7.67,0,0,1,518.86,330Z"/><path class="cls-1" d="M345.78,32.41a56.65,56.65,0,0,1,14.88,55.34,46.25,46.25,0,0,1-6.28,13.52,47.49,47.49,0,0,1,39.18,21.18c10.16,15.37,8.69,34.53-3.2,48.63-7.34,8.71-16.78,12.58-25.89,12.58A32.24,32.24,0,0,1,334.75,164a26.85,26.85,0,0,1,14.33-35.16,22.55,22.55,0,0,1,29.53,12.05,19.12,19.12,0,0,1-10.22,25,5.39,5.39,0,0,1-4.17-9.95A8.34,8.34,0,0,0,368.67,145a11.77,11.77,0,0,0-15.41-6.28,16.06,16.06,0,0,0-8.57,21c7.38,17.56,35.61,20.17,43.83-8.86a25.16,25.16,0,0,0-.78-16.56A36.56,36.56,0,0,0,340,114.88a45.73,45.73,0,0,1-36.64,5.25,38.32,38.32,0,0,1-26.64-47.19,31.76,31.76,0,0,1,39.08-22.07,26.46,26.46,0,0,1,18.4,32.59,22.26,22.26,0,0,1-27.4,15.48,5.39,5.39,0,0,1,2.89-10.39,11.53,11.53,0,0,0,8.72-1.06,11.4,11.4,0,0,0,5.4-6.92,15.66,15.66,0,0,0-10.9-19.3,20.92,20.92,0,0,0-25.8,14.57,27.53,27.53,0,0,0,19.15,33.9,35.79,35.79,0,0,0,44-24.88,46.12,46.12,0,0,0-32-56.71,62.76,62.76,0,0,0-13.14-1.64H207.64a6.8,6.8,0,1,0,0,13.6h22.42L209.74,80h40.83a5.4,5.4,0,0,1,0,10.79H209a7.81,7.81,0,0,0-7,4.28l-18.14,35.63a9,9,0,0,0,8,13.07h26.3l-11.79,17.85.38.57h7.49c26.18,0,36.21,18.64,45.07,35.08,7.95,14.77,14.82,27.52,31.65,29a33.46,33.46,0,0,0,36-28.81c1.4-10.38-3.79-21.23-12.94-26.31-8.53-4.72-17.93-4.16-24.5,1.38a19.31,19.31,0,0,0-6.83,13.23,14.49,14.49,0,0,0,13.22,15.66,10.9,10.9,0,0,0,7.67-2.44,10.49,10.49,0,0,0,3.7-7.15,5.55,5.55,0,0,1,5.82-4.92,5.39,5.39,0,0,1,4.92,5.82,21.29,21.29,0,0,1-23,19.44A25.31,25.31,0,0,1,272,184.8a30,30,0,0,1,10.63-20.57c13.61-11.5,35.42-9.84,49.23,10.33a34.39,34.39,0,0,1,6.09,22,43.94,43.94,0,0,1-15.53,30.08,45.44,45.44,0,0,1-6.66,4.64c60.7-4.16,101.37-44,101.37-102.2C417.08,81.16,389.43,45.76,345.78,32.41Z"/><path class="cls-1" d="M249.88,202.37C241.38,186.6,234,173,214.3,173h-.68l-7,11.26,7.66,11.28-4.05,22.61h-6.37a6.8,6.8,0,1,0,0,13.6h69.76C262.24,225.05,255.73,213.25,249.88,202.37Z"/></svg>