<svg id="Layer_1" data-name="Layer 1" xmlns="http://www.w3.org/2000/svg" viewBox="0 0 400 400"><defs><style>.cls-1{fill:#fe6e1e;}</style></defs><path class="cls-1" d="M263.83,65.18c19.6,19.57,28.67,48.62,20.73,77.16a64.42,64.42,0,0,1-8.75,18.85,66.19,66.19,0,0,1,54.62,29.52c14.18,21.43,12.11,48.14-4.45,67.79-10.24,12.14-23.4,17.55-36.1,17.55a45,45,0,0,1-41.44-27.48,37.47,37.47,0,0,1,20-49,31.48,31.48,0,0,1,41.18,16.79,26.68,26.68,0,0,1-14.25,34.91,7.51,7.51,0,1,1-5.81-13.86,11.62,11.62,0,0,0,6.19-15.21,16.4,16.4,0,0,0-21.47-8.76,22.39,22.39,0,0,0-12,29.31c10.29,24.48,49.64,28.12,61.11-12.34a35.07,35.07,0,0,0-1.08-23.08,51,51,0,0,0-66.62-27.15,63.81,63.81,0,0,1-51.07,7.31,53.41,53.41,0,0,1-37.15-65.78A44.26,44.26,0,0,1,222,90.92a36.9,36.9,0,0,1,25.66,45.44,31,31,0,0,1-38.21,21.57,7.52,7.52,0,0,1,4-14.49,16,16,0,0,0,19.68-11.12,21.86,21.86,0,0,0-15.2-26.91,29.2,29.2,0,0,0-36,20.31A38.38,38.38,0,0,0,208.67,173a49.87,49.87,0,0,0,61.41-34.69,64.27,64.27,0,0,0-44.66-79.05A86.92,86.92,0,0,0,207.1,57H71.24a9.48,9.48,0,1,0,0,19h31.25l-28.33,55.6h56.93a7.52,7.52,0,1,1,0,15H73.17a10.92,10.92,0,0,0-9.73,6L38.15,202.19a12.54,12.54,0,0,0,11.18,18.23H86L69.55,245.3l.52.8H80.53c36.49,0,50.48,26,62.83,48.91,11.09,20.59,20.66,38.36,44.12,40.35a46.64,46.64,0,0,0,50.12-40.17c2-14.46-5.28-29.59-18-36.67-11.89-6.59-25-5.8-34.15,1.92a27,27,0,0,0-9.54,18.45,20.22,20.22,0,0,0,18.44,21.84,15.3,15.3,0,0,0,10.7-3.41,14.67,14.67,0,0,0,5.15-10,7.75,7.75,0,0,1,8.11-6.86,7.51,7.51,0,0,1,6.86,8.12,29.67,29.67,0,0,1-32.08,27.09,35.26,35.26,0,0,1-32.15-38.07A41.85,41.85,0,0,1,175.71,249c19-16,49.39-13.71,68.64,14.41a48,48,0,0,1,8.49,30.71A61.25,61.25,0,0,1,231.18,336a62.8,62.8,0,0,1-9.29,6.46c84.63-5.79,141.34-61.3,141.34-142.47C363.23,133.14,324.67,83.8,263.83,65.18Z"/><path class="cls-1" d="M130.12,302.14c-11.84-22-22.08-41-49.59-41h-1l-9.82,15.7,10.68,15.73-5.65,31.51H65.91a9.48,9.48,0,1,0,0,19h97.25C147.36,333.74,138.28,317.29,130.12,302.14Z"/></svg>